<?xml version="1.0" standalone="no"?>
<!DOCTYPE svg PUBLIC "-//W3C//DTD SVG 20010904//EN"
 "http://www.w3.org/TR/2001/REC-SVG-20010904/DTD/svg10.dtd">
<svg version="1.0" xmlns="http://www.w3.org/2000/svg"
 width="500.000000pt" height="500.000000pt" viewBox="0 0 500.000000 500.000000"
 preserveAspectRatio="xMidYMid meet">

<g transform="translate(0.000000,500.000000) scale(0.100000,-0.100000)"
fill="#000000" stroke="none">
<path d="M1155 4487 c-11 -7 -55 -12 -100 -12 l-80 0 -16 -35 c-13 -27 -22
-34 -40 -32 -13 1 -53 -6 -89 -17 -78 -23 -62 -27 21 -6 65 17 99 9 95 -22 -2
-10 -1 -12 1 -5 3 6 11 12 18 12 34 0 90 -119 68 -141 -20 -20 -52 9 -67 59
-10 33 -15 40 -15 22 -1 -32 34 -91 59 -97 14 -4 19 -16 22 -55 1 -27 1 -51
-2 -53 -3 -2 -41 3 -85 10 -45 8 -84 10 -88 6 -5 -5 -3 -9 4 -8 26 3 184 -25
232 -40 37 -12 54 -13 73 -5 49 23 14 47 -56 38 -52 -6 -70 8 -70 54 0 32 7
48 38 82 55 61 182 114 182 76 0 -10 3 -9 9 1 11 18 42 10 131 -33 39 -19 72
-31 74 -27 5 8 -120 65 -168 77 -30 7 -31 9 -41 68 -7 40 -52 96 -77 96 -7 0
-22 -6 -33 -13z m64 -18 c27 -25 41 -60 41 -100 0 -24 -4 -29 -25 -29 -30 0
-110 -39 -152 -74 l-29 -25 -12 44 c-7 26 -26 58 -47 79 -39 40 -42 52 -19 85
15 21 21 22 84 16 52 -5 74 -3 96 9 37 20 36 20 63 -5z m-55 -378 c8 -12 -29
-20 -56 -13 -23 6 -23 6 2 13 36 10 48 10 54 0z"/>
<path d="M771 4314 c0 -11 3 -14 6 -6 3 7 2 16 -1 19 -3 4 -6 -2 -5 -13z"/>
<path d="M780 4285 c0 -5 5 -17 10 -25 5 -8 10 -10 10 -5 0 6 -5 17 -10 25 -5
8 -10 11 -10 5z"/>
<path d="M672 4210 c1 -53 3 -61 5 -28 l4 47 47 -4 c42 -4 44 -4 13 4 -19 5
-43 20 -53 33 -17 23 -18 22 -16 -52z"/>
<path d="M789 4224 c-9 -11 -8 -14 8 -14 11 0 32 -10 47 -21 15 -12 30 -19 33
-16 8 9 -5 24 -41 45 -30 18 -36 19 -47 6z"/>
<path d="M1200 4203 c-45 -21 -59 -45 -29 -51 9 -2 31 9 48 24 31 26 34 26 88
15 31 -6 58 -9 60 -7 3 2 -22 10 -54 16 -32 7 -60 15 -63 19 -3 3 -25 -4 -50
-16z m-3 -30 c-9 -9 -20 -13 -24 -9 -4 4 -1 11 7 16 25 16 35 11 17 -7z"/>
<path d="M1420 4195 c-7 -8 -19 -15 -27 -15 -12 0 -13 -3 -5 -13 9 -10 3 -22
-24 -49 -31 -33 -38 -36 -75 -31 -43 6 -62 -7 -52 -34 6 -16 27 -17 70 -1 29
11 39 9 93 -17 33 -16 60 -31 60 -35 0 -3 16 -4 35 -2 22 3 35 0 35 -7 0 -7 5
-9 10 -6 20 12 9 25 -20 25 -17 0 -38 4 -48 9 -9 5 -38 17 -64 26 -26 9 -50
21 -54 26 -3 6 6 26 21 45 25 33 28 34 76 28 42 -6 49 -4 49 10 0 14 -4 15
-20 6 -14 -8 -26 -8 -40 0 -23 12 -25 21 -8 38 7 7 9 12 6 12 -3 0 -11 -7 -18
-15z m-120 -124 c0 -13 -37 -24 -50 -16 -6 4 -8 11 -5 16 8 12 55 12 55 0z"/>
<path d="M842 4080 c0 -14 2 -19 5 -12 2 6 2 18 0 25 -3 6 -5 1 -5 -13z"/>
<path d="M675 4067 c3 -10 5 -20 5 -22 0 -6 71 -47 75 -43 2 2 -11 12 -29 22
-19 10 -39 28 -45 39 -8 15 -10 16 -6 4z"/>
<path d="M926 4015 c-41 -49 -76 -60 -77 -22 l0 22 -9 -23 c-8 -20 -13 -21
-31 -12 -11 7 -23 10 -25 7 -3 -2 9 -10 25 -17 16 -6 41 -29 54 -49 37 -56 84
-68 181 -47 42 10 99 16 126 15 27 -2 53 0 56 4 13 13 -114 7 -187 -8 -54 -12
-80 -13 -104 -5 -58 19 -96 80 -50 80 8 0 28 20 46 45 18 25 40 45 51 45 10 0
49 -16 87 -35 77 -40 153 -53 200 -37 27 9 31 9 32 -6 0 -12 3 -10 10 7 13 32
7 35 -32 16 -46 -24 -115 -14 -207 30 -41 19 -82 35 -92 35 -10 0 -34 -20 -54
-45z"/>
<path d="M1426 3945 c-10 -8 -44 -19 -75 -26 -31 -7 -50 -14 -44 -16 19 -7
119 25 133 42 15 19 11 19 -14 0z"/>
<path d="M1485 3920 c-35 -37 -94 -56 -210 -70 -171 -20 -238 -51 -290 -133
-16 -25 -33 -47 -37 -47 -3 0 -11 12 -17 28 l-11 27 7 -30 c4 -16 7 -45 7 -62
1 -18 6 -33 13 -33 6 0 16 -12 22 -27 10 -25 10 -25 5 -3 -15 65 -15 79 5 118
43 83 132 133 266 147 149 16 229 44 260 92 21 31 14 29 -20 -7z"/>
<path d="M1261 3910 c-13 -11 -19 -20 -13 -20 10 0 42 27 42 36 0 7 -4 5 -29
-16z"/>
<path d="M895 3818 c-34 -40 -85 -145 -84 -173 0 -11 7 0 14 25 8 25 30 70 49
100 l35 55 2 -50 1 -50 9 59 c5 33 7 61 5 63 -2 2 -16 -11 -31 -29z"/>
<path d="M1370 3805 c-30 -9 -71 -28 -90 -43 -40 -32 -80 -104 -79 -142 0 -17
4 -10 13 21 17 62 51 103 112 134 43 22 64 26 142 26 75 0 107 -5 181 -30 50
-17 115 -44 146 -62 50 -28 55 -34 53 -63 -4 -62 2 -97 17 -103 20 -7 26 -1
35 39 l7 33 16 -35 c20 -45 43 -66 93 -84 l39 -13 -57 -8 c-67 -8 -68 -25 -2
-25 24 0 44 -4 44 -9 0 -16 74 -38 153 -46 l79 -7 -21 -22 c-25 -27 -28 -45
-3 -24 31 27 62 29 72 5 5 -13 9 -16 9 -7 2 40 -32 56 -148 69 -106 12 -150
32 -130 59 7 9 22 25 33 34 12 9 17 20 13 24 -4 4 -16 -1 -26 -11 -38 -33
-120 15 -142 84 -18 56 -39 73 -174 140 -137 69 -283 94 -385 66z m518 -184
c5 -30 -6 -73 -17 -67 -10 7 -22 76 -15 88 10 15 29 3 32 -21z"/>
<path d="M480 3805 c0 -32 31 -275 39 -301 10 -34 40 -94 41 -81 0 4 -6 20
-14 35 -16 31 -32 109 -41 197 l-6 60 28 -30 c16 -16 64 -60 108 -96 132 -110
153 -137 184 -233 9 -27 22 -51 30 -54 15 -5 9 21 -15 72 -8 16 -14 35 -14 42
0 18 -106 124 -203 203 -78 65 -117 113 -117 147 0 11 -5 26 -10 34 -5 8 -10
11 -10 5z"/>
<path d="M803 3540 c0 -41 2 -58 4 -37 2 20 2 54 0 75 -2 20 -4 3 -4 -38z"/>
<path d="M916 3524 c-10 -78 -7 -163 8 -199 18 -42 30 -44 52 -9 20 30 31 166
16 204 -6 17 -8 1 -5 -55 5 -82 -10 -155 -34 -162 -23 -8 -36 67 -30 169 7
105 4 127 -7 52z"/>
<path d="M1193 3515 c0 -27 2 -38 4 -22 2 15 2 37 0 50 -2 12 -4 0 -4 -28z"/>
<path d="M1613 3490 c-28 -16 -63 -44 -76 -62 -44 -60 -41 -64 6 -11 72 78
157 112 201 80 16 -12 12 -15 -37 -26 -31 -7 -73 -25 -94 -40 -43 -32 -136
-141 -120 -141 3 0 23 25 46 55 47 63 121 110 187 120 47 7 53 15 28 39 -25
25 -83 19 -141 -14z"/>
<path d="M1203 3425 c0 -22 2 -30 4 -17 2 12 2 30 0 40 -3 9 -5 -1 -4 -23z"/>
<path d="M1659 3361 c-16 -16 -29 -34 -29 -41 0 -6 14 5 31 25 43 49 79 48
132 -5 l40 -41 -49 -50 c-27 -28 -69 -62 -94 -77 -24 -15 -53 -35 -63 -45 -11
-11 -25 -16 -37 -12 -10 3 -21 1 -25 -5 -10 -17 -37 -12 -63 13 -25 22 -22 7
4 -24 12 -14 4 -19 -72 -49 -98 -38 -141 -64 -162 -100 -14 -23 -13 -23 9 2
38 43 244 132 405 174 105 27 138 51 200 148 25 38 24 67 0 33 -19 -26 -28
-22 -78 33 -39 43 -51 50 -83 50 -27 0 -44 -7 -66 -29z m192 -124 c-11 -18
-29 -32 -39 -32 -10 0 -25 -5 -33 -11 -21 -17 -76 -44 -90 -44 -7 0 8 14 34
31 26 17 58 44 71 60 31 37 55 39 31 3 -9 -14 -14 -28 -11 -31 3 -3 13 11 22
30 10 20 21 34 26 31 5 -3 0 -20 -11 -37z"/>
<path d="M1212 3365 c0 -11 4 -31 8 -45 6 -20 8 -21 8 -5 0 11 -4 31 -8 45 -6
20 -8 21 -8 5z"/>
<path d="M630 3352 c14 -12 80 -44 148 -73 179 -75 245 -141 288 -287 13 -44
14 -45 10 -9 -6 51 -46 135 -86 180 -37 43 -122 92 -230 135 -42 17 -93 40
-115 52 -37 21 -38 21 -15 2z"/>
<path d="M2302 3298 c5 -58 -4 -72 -29 -47 -18 18 -33 1 -32 -34 2 -31 2 -31
6 -4 4 23 8 27 26 22 12 -4 35 -16 50 -27 16 -11 31 -17 34 -15 2 3 -5 11 -17
17 -20 11 -22 18 -16 58 4 35 1 52 -10 67 -15 19 -16 16 -12 -37z"/>
<path d="M2181 3295 c-33 -23 -51 -43 -51 -57 0 -3 13 6 29 20 16 15 39 35 52
44 13 9 20 17 14 17 -5 0 -25 -11 -44 -24z"/>
<path d="M1231 3274 c0 -11 3 -14 6 -6 3 7 2 16 -1 19 -3 4 -6 -2 -5 -13z"/>
<path d="M1454 3248 c-18 -54 -21 -63 -17 -55 3 4 11 7 18 7 7 0 15 10 18 23
2 12 8 30 12 40 5 11 3 17 -6 17 -8 0 -19 -15 -25 -32z"/>
<path d="M1250 3206 c0 -8 4 -17 9 -20 5 -4 7 3 4 14 -6 23 -13 26 -13 6z"/>
<path d="M2387 3183 c8 -3 9 -10 3 -21 -13 -24 -42 -133 -37 -139 3 -2 13 27
23 66 11 44 24 71 32 71 26 0 52 -21 53 -43 1 -16 3 -17 6 -5 7 26 -15 58 -40
59 -18 1 -18 2 -4 6 38 10 75 -50 56 -91 -7 -14 -17 -22 -25 -19 -8 3 -18 -6
-25 -24 -33 -77 -58 -130 -73 -148 -13 -17 -17 -18 -26 -5 -8 12 -10 11 -10
-6 0 -12 6 -26 13 -32 17 -15 101 2 160 33 49 25 67 25 67 1 0 -7 27 -44 60
-84 58 -69 69 -97 54 -136 -10 -27 -21 -18 -27 22 -4 21 -13 46 -20 56 -13 18
-17 13 -56 -61 -44 -84 -117 -165 -206 -228 -60 -42 -72 -43 -78 -7 -4 25 -4
25 -6 -5 -1 -41 -23 -56 -149 -100 -53 -19 -80 -32 -60 -28 21 3 71 19 113 36
41 17 79 28 85 24 5 -3 10 -2 10 4 0 6 36 33 80 62 97 62 176 147 220 235 18
36 36 62 40 57 5 -4 12 -28 17 -53 11 -55 33 -60 49 -10 15 46 4 73 -50 130
-62 64 -77 97 -70 157 5 40 3 51 -12 63 -16 12 -17 12 -6 0 6 -8 12 -25 11
-39 l0 -26 -10 25 c-19 47 -53 52 -97 15 -39 -33 -43 -32 -30 8 15 46 21 50
63 38 31 -8 35 -8 25 4 -7 8 -13 35 -15 60 -4 61 -26 85 -79 84 -23 0 -36 -3
-29 -6z m147 -205 c8 -18 12 -38 9 -45 -7 -19 -106 -64 -155 -70 l-43 -6 39
49 c51 64 96 104 119 104 11 0 23 -13 31 -32z"/>
<path d="M480 3174 c0 -3 16 -22 35 -42 19 -20 44 -59 55 -87 10 -27 19 -44
19 -37 1 19 -28 84 -46 104 -40 44 6 24 129 -58 142 -94 243 -185 276 -249 20
-41 54 -145 47 -145 -13 0 -189 143 -237 194 -83 86 -71 52 20 -56 79 -94 184
-188 211 -188 8 0 -5 13 -30 29 -47 30 -92 70 -124 110 l-20 25 33 -21 c19
-11 60 -43 92 -71 67 -59 78 -53 53 30 -42 142 -115 222 -332 363 -141 92
-181 113 -181 99z"/>
<path d="M2130 3173 c0 -14 43 -49 70 -58 31 -10 60 12 59 43 l-2 27 -4 -26
c-2 -15 -12 -29 -22 -32 -24 -6 -76 17 -90 40 -6 10 -11 13 -11 6z"/>
<path d="M1381 3130 c-27 -23 -57 -26 -81 -7 -9 6 -6 2 7 -10 26 -25 52 -21
84 13 27 29 23 31 -10 4z"/>
<path d="M2342 2990 c0 -14 2 -19 5 -12 2 6 2 18 0 25 -3 6 -5 1 -5 -13z"/>
<path d="M592 2970 c0 -14 2 -19 5 -12 2 6 2 18 0 25 -3 6 -5 1 -5 -13z"/>
<path d="M1585 2940 c-62 -20 -127 -66 -146 -102 -6 -12 6 -4 26 17 77 76 197
106 335 82 37 -6 40 -5 20 4 -49 21 -170 21 -235 -1z"/>
<path d="M2332 2935 c0 -16 2 -22 5 -12 2 9 2 23 0 30 -3 6 -5 -1 -5 -18z"/>
<path d="M601 2928 c-2 -36 39 -140 73 -187 70 -95 138 -135 246 -145 42 -3
56 -2 40 3 -14 5 -41 9 -61 10 -19 1 -58 12 -85 26 -94 47 -162 134 -195 249
-10 34 -18 54 -18 44z"/>
<path d="M1080 2933 c1 -29 29 -175 34 -181 4 -4 5 4 2 18 -3 14 -10 58 -16
98 -7 39 -14 72 -16 72 -2 0 -4 -3 -4 -7z"/>
<path d="M1929 2890 c160 -76 268 -171 323 -285 16 -33 26 -49 22 -35 -21 81
-81 158 -186 237 -68 52 -201 123 -229 123 -8 0 24 -18 70 -40z"/>
<path d="M1253 2880 c0 -25 2 -35 4 -22 2 12 2 32 0 45 -2 12 -4 2 -4 -23z"/>
<path d="M1267 2755 c3 -38 7 -72 9 -74 7 -8 3 64 -6 104 -7 31 -7 24 -3 -30z"/>
<path d="M1402 2710 c0 -19 2 -27 5 -17 2 9 2 25 0 35 -3 9 -5 1 -5 -18z"/>
<path d="M1120 2705 c0 -18 39 -89 46 -83 2 2 -8 26 -21 53 -14 26 -25 40 -25
30z"/>
<path d="M1263 2653 c-9 -27 -35 -53 -45 -47 -5 3 -15 0 -23 -6 -10 -8 -41
-11 -89 -8 -41 2 -73 2 -71 0 2 -2 27 -9 57 -16 l53 -13 -38 -8 c-25 -5 -42
-4 -50 4 -17 17 -31 13 -17 -4 10 -12 8 -17 -11 -25 -21 -9 -21 -9 8 -4 39 7
53 -12 24 -32 -29 -21 -26 -48 10 -86 l31 -33 -27 37 c-28 39 -28 71 0 82 15
5 25 -7 59 -69 15 -26 16 -27 10 -5 -4 14 -13 38 -21 54 l-15 29 38 -7 c22 -3
50 -9 64 -12 21 -4 22 -3 8 5 -9 6 -38 14 -65 17 -77 11 -83 25 -19 44 75 24
122 55 135 90 5 17 8 30 5 30 -2 0 -7 -8 -11 -17z"/>
<path d="M225 2522 c11 -5 52 -17 90 -26 92 -22 195 -75 330 -171 151 -107
201 -129 295 -129 41 -1 87 2 102 7 25 7 32 1 82 -60 31 -36 70 -95 88 -129
18 -35 34 -61 36 -59 9 9 -77 153 -119 199 l-46 51 46 40 c39 35 50 40 76 34
55 -12 169 -9 210 7 77 30 80 29 100 -15 10 -23 20 -39 22 -37 10 10 -55 116
-83 135 -40 28 -62 27 -120 -6 -53 -30 -154 -39 -162 -15 -4 14 -32 16 -32 2
0 -5 5 -10 10 -10 6 0 10 -7 10 -15 0 -21 -29 -19 -69 6 -18 11 -35 18 -38 15
-3 -2 18 -16 47 -31 46 -23 50 -28 38 -43 -38 -49 -73 -54 -109 -16 -29 31
-149 122 -203 153 -102 59 -215 86 -414 101 -75 6 -153 13 -172 15 -26 4 -30
3 -15 -3z m300 -33 c119 -15 223 -49 315 -103 79 -47 210 -150 210 -166 0 -13
-85 -23 -138 -16 -57 8 -171 60 -232 107 -86 66 -170 120 -242 154 -68 33 -70
35 -38 35 19 0 76 -5 125 -11z m923 -129 c29 -28 28 -36 -9 -56 -63 -32 -260
-28 -267 7 -2 12 9 15 55 14 44 0 70 6 108 27 61 33 84 34 113 8z"/>
<path d="M2281 2514 c0 -11 3 -14 6 -6 3 7 2 16 -1 19 -3 4 -6 -2 -5 -13z"/>
<path d="M1490 2480 c0 -5 5 -10 11 -10 5 0 7 5 4 10 -3 6 -8 10 -11 10 -2 0
-4 -4 -4 -10z"/>
<path d="M1270 2470 c8 -5 26 -10 39 -10 32 0 24 6 -19 14 -25 4 -31 3 -20 -4z"/>
<path d="M1375 2450 c11 -5 27 -9 35 -9 13 -1 13 0 0 9 -8 5 -24 9 -35 9 l-20
0 20 -9z"/>
<path d="M1460 2426 c0 -2 7 -9 15 -16 13 -11 14 -10 9 4 -5 14 -24 23 -24 12z"/>
<path d="M1590 2391 c0 -16 84 -61 151 -82 61 -19 215 -25 267 -11 13 4 -37 7
-110 7 -119 0 -139 3 -188 24 -30 13 -70 35 -87 48 -18 13 -33 19 -33 14z"/>
<path d="M2242 2293 c-13 -36 -21 -67 -19 -70 3 -2 15 26 27 62 12 36 20 68
18 70 -2 2 -14 -26 -26 -62z"/>
<path d="M2202 2171 c-7 -21 -12 -45 -11 -52 0 -8 7 8 15 35 9 26 13 50 11 52
-2 2 -9 -13 -15 -35z"/>
<path d="M1562 2120 c0 -14 2 -19 5 -12 2 6 2 18 0 25 -3 6 -5 1 -5 -13z"/>
<path d="M2181 2084 c0 -11 3 -14 6 -6 3 7 2 16 -1 19 -3 4 -6 -2 -5 -13z"/>
<path d="M2172 2040 c0 -14 2 -19 5 -12 2 6 2 18 0 25 -3 6 -5 1 -5 -13z"/>
<path d="M2162 1990 c0 -14 2 -19 5 -12 2 6 2 18 0 25 -3 6 -5 1 -5 -13z"/>
<path d="M1261 1900 c0 -8 4 -24 9 -35 5 -13 9 -14 9 -5 0 8 -4 24 -9 35 -5
13 -9 14 -9 5z"/>
<path d="M2020 1823 c-31 -32 -68 -73 -83 -92 -25 -30 -33 -33 -74 -33 -95 2
-124 66 -62 137 30 34 29 47 -1 22 -83 -65 -58 -163 45 -175 l46 -5 -33 -34
c-18 -20 -50 -46 -71 -60 -35 -22 -43 -23 -88 -14 -75 16 -128 14 -136 -5 -12
-31 25 -46 97 -39 36 3 112 7 170 8 86 2 114 7 153 26 26 13 47 27 47 32 0 13
-5 12 -46 -13 -42 -25 -194 -40 -194 -19 0 6 4 11 8 11 5 0 33 24 63 54 34 34
68 58 92 64 91 25 187 112 187 169 0 19 -5 23 -32 23 -25 0 -42 -12 -88 -57z
m103 17 c-13 -49 -161 -160 -172 -129 -5 16 92 122 129 141 38 20 50 16 43
-12z m-430 -290 c11 -9 -55 -22 -77 -15 -52 17 -52 17 -31 25 22 9 95 2 108
-10z"/>
<path d="M3350 1791 c-47 -49 -95 -90 -105 -91 -49 -5 -78 2 -101 26 -32 31
-26 65 19 112 32 33 31 40 -4 22 -40 -22 -61 -98 -39 -140 10 -20 59 -40 96
-40 13 0 24 -4 24 -8 0 -10 -56 -63 -98 -91 -29 -21 -37 -22 -83 -12 -75 16
-128 14 -136 -5 -12 -31 25 -46 92 -38 33 3 98 6 144 5 94 -2 175 17 212 50
26 22 23 22 -36 -6 -41 -19 -191 -35 -184 -19 2 5 31 34 64 66 39 36 74 60
101 67 84 23 184 114 184 169 0 18 -6 22 -32 22 -28 0 -45 -12 -118 -89z m130
59 c0 -30 -78 -110 -128 -132 -24 -11 -46 -17 -49 -14 -6 5 58 85 99 123 18
17 53 37 76 42 1 1 2 -8 2 -19z m-427 -300 c15 -14 -67 -22 -98 -10 -23 9 -26
13 -15 20 16 10 100 2 113 -10z"/>
<path d="M1282 1820 c0 -14 2 -19 5 -12 2 6 2 18 0 25 -3 6 -5 1 -5 -13z"/>
<path d="M3883 1788 c-6 -7 -17 -32 -23 -55 -13 -43 -28 -53 -83 -53 -16 0
-26 -4 -23 -9 3 -5 26 -6 51 -3 45 5 45 4 45 -26 0 -22 -8 -36 -28 -51 -32
-23 -89 -40 -79 -24 4 6 -3 23 -14 37 -17 21 -19 29 -9 41 24 29 -2 15 -61
-33 -68 -56 -121 -77 -152 -61 -15 8 -18 18 -13 40 7 37 1 37 -31 -1 -33 -39
-46 -38 -38 3 l6 32 -15 -25 c-9 -14 -15 -31 -16 -38 0 -21 30 -25 51 -6 19
17 20 17 35 -4 27 -39 91 -26 172 36 34 26 60 23 70 -6 6 -18 -28 -27 -49 -13
-21 13 -26 2 -7 -17 20 -20 81 -14 133 13 27 13 49 23 50 22 4 -19 28 -44 49
-51 20 -8 36 -5 72 12 43 21 47 22 58 6 8 -10 32 -18 63 -21 42 -5 63 0 120
25 90 41 117 48 111 31 -10 -28 11 -49 50 -49 40 0 142 43 142 59 0 6 -21 -1
-47 -14 -48 -24 -67 -28 -111 -26 -21 1 -23 4 -17 32 7 31 7 31 -24 24 -31 -6
-32 -6 -25 20 6 23 4 26 -12 23 -12 -2 -21 -14 -24 -33 -7 -40 -74 -75 -145
-75 -65 0 -89 19 -42 34 21 8 33 18 35 34 5 35 -23 28 -90 -23 -89 -67 -148
-60 -148 17 0 42 23 62 81 69 l54 6 -53 2 -53 1 7 35 c10 55 10 68 -2 72 -6 2
-16 -2 -21 -9z m6 -59 c-6 -24 -14 -38 -16 -32 -5 15 17 87 24 80 2 -3 -1 -25
-8 -48z m201 -119 c-20 -13 -33 -13 -25 0 3 6 14 10 23 10 15 0 15 -2 2 -10z"/>
<path d="M1292 1750 c0 -19 2 -27 5 -17 2 9 2 25 0 35 -3 9 -5 1 -5 -18z"/>
<path d="M1481 1743 c-10 -26 -10 -27 4 -9 8 11 15 23 15 28 0 15 -7 8 -19
-19z"/>
<path d="M1450 1680 c-6 -11 -8 -20 -6 -20 3 0 10 9 16 20 6 11 8 20 6 20 -3
0 -10 -9 -16 -20z"/>
<path d="M1303 1640 c0 -25 2 -35 4 -22 2 12 2 32 0 45 -2 12 -4 2 -4 -23z"/>
<path d="M2551 1597 c-53 -34 -73 -42 -111 -42 -51 0 -88 21 -70 39 17 17 11
27 -11 16 -16 -9 -24 -8 -38 4 -19 17 -36 22 -26 7 3 -5 -9 -21 -27 -34 -76
-56 -146 -54 -134 4 7 37 1 37 -31 -1 -33 -39 -46 -38 -38 3 l6 32 -15 -25
c-9 -14 -15 -31 -16 -38 0 -21 30 -25 51 -6 19 17 20 17 35 -4 26 -38 102 -23
161 31 31 28 42 13 13 -18 -26 -28 -16 -33 18 -10 19 14 24 14 51 0 41 -21
109 -19 154 5 28 15 37 17 37 6 0 -21 55 -39 105 -33 49 5 136 45 143 65 2 6
-22 -2 -53 -18 -65 -34 -153 -42 -175 -15 -10 12 -9 15 8 15 27 0 67 34 58 48
-12 19 -27 14 -95 -31z m74 13 c-3 -5 -13 -10 -21 -10 -8 0 -12 5 -9 10 3 6
13 10 21 10 8 0 12 -4 9 -10z"/>
<path d="M1370 1543 c-63 -105 -59 -101 -70 -83 -6 10 -11 2 -16 -26 -4 -22
-38 -87 -77 -149 -185 -290 -240 -465 -207 -660 14 -83 25 -91 21 -16 -3 69 9
107 110 338 50 112 89 206 87 208 -4 5 -171 -372 -195 -440 l-18 -50 -3 55
c-8 137 49 293 191 525 54 88 62 96 67 75 6 -22 8 -19 14 17 4 24 35 88 71
147 73 121 87 146 81 146 -2 0 -27 -39 -56 -87z"/>
<path d="M1292 1500 c0 -14 2 -19 5 -12 2 6 2 18 0 25 -3 6 -5 1 -5 -13z"/>
<path d="M1750 1302 c0 -13 4 -21 9 -18 5 4 12 0 14 -6 3 -7 6 -8 6 -2 1 5 -6
19 -14 30 -14 18 -14 18 -15 -4z"/>
<path d="M1825 1289 c-9 -17 -14 -33 -12 -36 3 -2 8 5 12 16 3 12 11 19 16 16
5 -4 9 3 9 14 0 29 -7 26 -25 -10z"/>
<path d="M1931 1277 c-22 -51 -27 -74 -10 -44 14 24 54 22 68 -5 11 -23 11
-23 5 2 -4 14 -15 41 -24 60 l-18 35 -21 -48z m39 -9 c0 -5 -7 -8 -15 -8 -15
0 -20 21 -8 33 7 7 23 -11 23 -25z"/>
<path d="M2053 1265 c0 -33 2 -45 4 -27 2 18 2 45 0 60 -2 15 -4 0 -4 -33z"/>
<path d="M2088 1295 c-10 -13 -18 -28 -18 -33 0 -14 49 -56 57 -49 3 4 1 7 -5
7 -6 0 -19 11 -28 25 -16 25 -16 27 6 50 13 14 19 25 14 25 -5 0 -17 -11 -26
-25z"/>
<path d="M2182 1268 c-2 -57 -2 -58 26 -57 22 1 23 2 5 6 -19 4 -23 12 -26 56
l-3 52 -2 -57z"/>
<path d="M2293 1285 c0 -22 2 -30 4 -17 2 12 2 30 0 40 -3 9 -5 -1 -4 -23z"/>
<path d="M2382 1285 c-3 -50 -10 -62 -42 -68 -25 -4 -25 -4 2 -6 34 -1 51 26
45 77 l-4 37 -1 -40z"/>
<path d="M2496 1305 c19 -15 19 -15 0 -30 -11 -8 -15 -15 -9 -15 17 0 36 28
29 45 -3 8 -13 15 -23 15 -15 0 -15 -2 3 -15z"/>
<path d="M2686 1305 c-9 -24 -7 -32 3 -16 7 11 11 9 21 -9 11 -21 10 -22 -13
-18 -24 5 -46 -16 -32 -30 3 -3 5 0 5 6 0 21 47 13 64 -10 11 -16 10 -9 -5 27
-24 60 -34 72 -43 50z"/>
<path d="M2802 1265 c2 -57 2 -58 5 -13 l4 48 39 -45 c21 -25 40 -42 42 -37 2
4 -18 29 -44 57 l-48 50 2 -60z"/>
<path d="M3028 1304 c24 -17 29 -53 10 -72 -7 -7 -26 -13 -42 -13 l-31 -2 28
-4 c55 -8 89 54 49 90 -10 10 -23 17 -28 17 -4 0 2 -7 14 -16z"/>
<path d="M3222 1308 c-17 -17 -15 -64 4 -82 8 -9 30 -15 47 -15 l32 2 -30 4
c-16 3 -36 9 -42 15 -19 15 -16 65 5 77 9 6 12 11 7 11 -6 0 -16 -5 -23 -12z"/>
<path d="M3367 1302 c-35 -38 -8 -92 45 -92 26 0 40 12 51 43 10 27 -2 20 -13
-8 -7 -19 -17 -25 -38 -25 -50 0 -69 44 -35 82 9 10 14 18 11 18 -3 0 -12 -8
-21 -18z"/>
<path d="M3438 1302 c9 -10 19 -17 21 -16 6 5 -20 34 -30 34 -5 0 -1 -8 9 -18z"/>
<path d="M3525 1310 c-8 -12 3 -31 27 -48 26 -19 22 -40 -9 -45 l-28 -4 28 -2
c40 -2 45 24 12 59 -15 16 -24 33 -21 39 4 6 5 11 2 11 -3 0 -8 -4 -11 -10z"/>
<path d="M3647 1313 c-4 -3 -7 -18 -6 -32 0 -23 1 -24 8 -6 7 17 10 15 21 -18
16 -44 23 -46 38 -12 16 36 14 45 -3 15 l-14 -25 -19 42 c-10 24 -22 40 -25
36z"/>
<path d="M3727 1307 c-4 -10 -2 -17 3 -17 6 0 10 -12 10 -27 0 -16 5 -35 10
-43 10 -16 3 49 -10 84 -6 17 -7 17 -13 3z"/>
<path d="M3823 1313 c9 -2 23 -2 30 0 6 3 -1 5 -18 5 -16 0 -22 -2 -12 -5z"/>
<path d="M3948 1278 c5 -71 10 -77 11 -15 0 31 -2 57 -7 57 -4 0 -6 -19 -4
-42z"/>
<path d="M4053 1265 c0 -33 2 -45 4 -27 2 18 2 45 0 60 -2 15 -4 0 -4 -33z"/>
<path d="M4130 1301 c-25 -48 5 -96 57 -88 l28 4 -30 2 c-17 0 -36 6 -43 13
-17 17 -15 54 4 72 8 9 11 16 5 16 -6 0 -15 -9 -21 -19z"/>
<path d="M4188 1313 c7 -3 16 -2 19 1 4 3 -2 6 -13 5 -11 0 -14 -3 -6 -6z"/>
<path d="M4283 1274 c15 -17 27 -35 27 -41 0 -7 -12 -14 -27 -16 -27 -5 -27
-5 2 -3 43 2 44 34 2 65 l-32 25 28 -30z"/>
<path d="M1241 1248 c-7 -24 -14 -50 -17 -58 -3 -8 1 -4 9 10 15 26 32 90 24
90 -3 0 -10 -19 -16 -42z"/>
<path d="M3814 1271 c3 -5 15 -7 26 -4 28 7 25 13 -6 13 -14 0 -23 -4 -20 -9z"/>
<path d="M1742 1240 c0 -19 2 -27 5 -17 2 9 2 25 0 35 -3 9 -5 1 -5 -18z"/>
<path d="M1852 1240 c0 -19 2 -27 5 -17 2 9 2 25 0 35 -3 9 -5 1 -5 -18z"/>
<path d="M1780 1253 c0 -15 19 -37 26 -31 3 4 -1 14 -10 23 -9 9 -16 13 -16 8z"/>
<path d="M3632 1230 c0 -14 2 -19 5 -12 2 6 2 18 0 25 -3 6 -5 1 -5 -13z"/>
<path d="M3823 1213 c9 -2 25 -2 35 0 9 3 1 5 -18 5 -19 0 -27 -2 -17 -5z"/>
</g>
</svg>
